<svg xmlns="http://www.w3.org/2000/svg" xmlns:xlink="http://www.w3.org/1999/xlink" width="500" zoomAndPan="magnify" viewBox="0 0 375 374.999991" height="500" preserveAspectRatio="xMidYMid meet" version="1.0"><defs><clipPath id="3df3d0d544"><path d="M 0 152 L 316 152 L 316 375 L 0 375 Z M 0 152 " clip-rule="nonzero"/></clipPath><clipPath id="ba895addad"><path d="M -25.199219 351.023438 L 173.566406 152.253906 L 315.277344 293.964844 L 116.511719 492.730469 Z M -25.199219 351.023438 " clip-rule="nonzero"/></clipPath><clipPath id="d7566204f4"><path d="M 0 0.160156 L 315.359375 0.160156 L 315.359375 223 L 0 223 Z M 0 0.160156 " clip-rule="nonzero"/></clipPath><clipPath id="e42db9e49b"><path d="M -25.199219 199.023438 L 173.566406 0.253906 L 315.277344 141.964844 L 116.511719 340.730469 Z M -25.199219 199.023438 " clip-rule="nonzero"/></clipPath><clipPath id="40728ddd0b"><rect x="0" width="316" y="0" height="223"/></clipPath><clipPath id="ecac4068a4"><path d="M 114 35 L 375 35 L 375 375 L 114 375 Z M 114 35 " clip-rule="nonzero"/></clipPath><clipPath id="1fa05a6884"><path d="M 114.414062 303.320312 L 381.738281 35.996094 L 556.214844 210.46875 L 288.890625 477.796875 Z M 114.414062 303.320312 " clip-rule="nonzero"/></clipPath><clipPath id="0bef864f81"><path d="M 0.238281 1 L 261 1 L 261 340 L 0.238281 340 Z M 0.238281 1 " clip-rule="nonzero"/></clipPath><clipPath id="9017dcf0ab"><path d="M 0.414062 268.320312 L 267.738281 0.996094 L 442.214844 175.46875 L 174.890625 442.796875 Z M 0.414062 268.320312 " clip-rule="nonzero"/></clipPath><clipPath id="03961e1deb"><rect x="0" width="261" y="0" height="340"/></clipPath><clipPath id="606aa96c17"><path d="M 0 181 L 319 181 L 319 375 L 0 375 Z M 0 181 " clip-rule="nonzero"/></clipPath><clipPath id="f07f2eeb62"><path d="M -22.019531 380.660156 L 176.746094 181.890625 L 318.457031 323.601562 L 119.6875 522.367188 Z M -22.019531 380.660156 " clip-rule="nonzero"/></clipPath><clipPath id="69aa1cc61e"><path d="M 0 0.679688 L 318.480469 0.679688 L 318.480469 194 L 0 194 Z M 0 0.679688 " clip-rule="nonzero"/></clipPath><clipPath id="ab578fba33"><path d="M -22.019531 199.660156 L 176.746094 0.890625 L 318.457031 142.601562 L 119.6875 341.367188 Z M -22.019531 199.660156 " clip-rule="nonzero"/></clipPath><clipPath id="a57c439689"><rect x="0" width="319" y="0" height="194"/></clipPath><clipPath id="d94cef7a91"><path d="M 157 68 L 375 68 L 375 375 L 157 375 Z M 157 68 " clip-rule="nonzero"/></clipPath><clipPath id="63fcad1a04"><path d="M 157.703125 289.117188 L 377.945312 68.871094 L 541.40625 232.332031 L 321.164062 452.578125 Z M 157.703125 289.117188 " clip-rule="nonzero"/></clipPath><clipPath id="24c4fd0887"><path d="M 0.679688 0.640625 L 218 0.640625 L 218 307 L 0.679688 307 Z M 0.679688 0.640625 " clip-rule="nonzero"/></clipPath><clipPath id="111ce68d35"><path d="M 0.703125 221.117188 L 220.945312 0.871094 L 384.40625 164.332031 L 164.164062 384.578125 Z M 0.703125 221.117188 " clip-rule="nonzero"/></clipPath><clipPath id="1bd9b003f7"><rect x="0" width="218" y="0" height="307"/></clipPath><clipPath id="b2b0fa452d"><path d="M 0 0 L 176 0 L 176 353 L 0 353 Z M 0 0 " clip-rule="nonzero"/></clipPath><clipPath id="d84afaf541"><path d="M -192.515625 183.507812 L 6.25 -15.261719 L 175.492188 153.980469 L -23.273438 352.75 Z M -192.515625 183.507812 " clip-rule="nonzero"/></clipPath><clipPath id="d1a7bf6426"><path d="M 0 0 L 175.679688 0 L 175.679688 352.800781 L 0 352.800781 Z M 0 0 " clip-rule="nonzero"/></clipPath><clipPath id="cb81ce1b72"><path d="M -192.515625 183.507812 L 6.25 -15.261719 L 175.492188 153.980469 L -23.273438 352.75 Z M -192.515625 183.507812 " clip-rule="nonzero"/></clipPath><clipPath id="fbde931cfa"><rect x="0" width="176" y="0" height="353"/></clipPath><clipPath id="5d119e7f22"><path d="M 0 0 L 163 0 L 163 367 L 0 367 Z M 0 0 " clip-rule="nonzero"/></clipPath><clipPath id="6986eed4be"><path d="M -206.164062 196.515625 L -7.394531 -2.25 L 162.121094 167.265625 L -36.644531 366.035156 Z M -206.164062 196.515625 " clip-rule="nonzero"/></clipPath><clipPath id="44f90da466"><path d="M 0 0 L 162.238281 0 L 162.238281 366.238281 L 0 366.238281 Z M 0 0 " clip-rule="nonzero"/></clipPath><clipPath id="84fad30f25"><path d="M -206.164062 196.515625 L -7.394531 -2.25 L 162.121094 167.265625 L -36.644531 366.035156 Z M -206.164062 196.515625 " clip-rule="nonzero"/></clipPath><clipPath id="6d2aaf590a"><rect x="0" width="163" y="0" height="367"/></clipPath><clipPath id="3c5b6c38ce"><path d="M 8 210 L 375 210 L 375 375 L 8 375 Z M 8 210 " clip-rule="nonzero"/></clipPath><clipPath id="57c7c9db6b"><path d="M 8.15625 409.660156 L 206.925781 210.890625 L 376.167969 380.132812 L 177.402344 578.902344 Z M 8.15625 409.660156 " clip-rule="nonzero"/></clipPath><clipPath id="0f074e0c32"><path d="M 0 0.71875 L 367 0.71875 L 367 165 L 0 165 Z M 0 0.71875 " clip-rule="nonzero"/></clipPath><clipPath id="cf839092c0"><path d="M 0.15625 199.660156 L 198.925781 0.890625 L 368.167969 170.132812 L 169.402344 368.902344 Z M 0.15625 199.660156 " clip-rule="nonzero"/></clipPath><clipPath id="f58e03894a"><rect x="0" width="367" y="0" height="165"/></clipPath><clipPath id="9be8a2f4a0"><path d="M 7 219 L 375 219 L 375 375 L 7 375 Z M 7 219 " clip-rule="nonzero"/></clipPath><clipPath id="6dd287682f"><path d="M 7.40625 439.332031 L 227.652344 219.089844 L 391.113281 382.550781 L 170.867188 602.792969 Z M 7.40625 439.332031 " clip-rule="nonzero"/></clipPath><clipPath id="15d103d4dc"><path d="M 0.199219 0 L 368 0 L 368 156 L 0.199219 156 Z M 0.199219 0 " clip-rule="nonzero"/></clipPath><clipPath id="75a484a0ef"><path d="M 0.40625 220.332031 L 220.652344 0.0898438 L 384.113281 163.550781 L 163.867188 383.792969 Z M 0.40625 220.332031 " clip-rule="nonzero"/></clipPath><clipPath id="6b6ba62dca"><rect x="0" width="368" y="0" height="156"/></clipPath><clipPath id="c29b521de2"><path d="M 0 236 L 321 236 L 321 375 L 0 375 Z M 0 236 " clip-rule="nonzero"/></clipPath><clipPath id="a50fc6cbd2"><path d="M -63.191406 456.792969 L 157.050781 236.546875 L 320.511719 400.007812 L 100.269531 620.25 Z M -63.191406 456.792969 " clip-rule="nonzero"/></clipPath><clipPath id="356652aec7"><path d="M 0 0.398438 L 320.640625 0.398438 L 320.640625 139 L 0 139 Z M 0 0.398438 " clip-rule="nonzero"/></clipPath><clipPath id="044a38db26"><path d="M -63.191406 220.792969 L 157.050781 0.546875 L 320.511719 164.007812 L 100.269531 384.25 Z M -63.191406 220.792969 " clip-rule="nonzero"/></clipPath><clipPath id="ac3726d188"><rect x="0" width="321" y="0" height="139"/></clipPath><clipPath id="716ffd3a04"><path d="M 0 247 L 341 247 L 341 375 L 0 375 Z M 0 247 " clip-rule="nonzero"/></clipPath><clipPath id="9a4dd2877f"><path d="M 0 446.171875 L 198.769531 247.402344 L 340.480469 389.113281 L 141.710938 587.882812 Z M 0 446.171875 " clip-rule="nonzero"/></clipPath><clipPath id="f910a34cd4"><path d="M 0 0.199219 L 340.558594 0.199219 L 340.558594 128 L 0 128 Z M 0 0.199219 " clip-rule="nonzero"/></clipPath><clipPath id="703a799ff1"><path d="M 0 199.171875 L 198.769531 0.402344 L 340.480469 142.113281 L 141.710938 340.882812 Z M 0 199.171875 " clip-rule="nonzero"/></clipPath><clipPath id="a6b0bda118"><rect x="0" width="341" y="0" height="128"/></clipPath><clipPath id="132a6b2faa"><path d="M 0 261 L 346 261 L 346 375 L 0 375 Z M 0 261 " clip-rule="nonzero"/></clipPath><clipPath id="4f31e5ee6c"><path d="M -38 481.65625 L 182.246094 261.414062 L 345.707031 424.875 L 125.460938 645.117188 Z M -38 481.65625 " clip-rule="nonzero"/></clipPath><clipPath id="25560ea7f9"><path d="M 0 0.359375 L 345.839844 0.359375 L 345.839844 114 L 0 114 Z M 0 0.359375 " clip-rule="nonzero"/></clipPath><clipPath id="9d4a0e2267"><path d="M -38 220.65625 L 182.246094 0.414062 L 345.707031 163.875 L 125.460938 384.117188 Z M -38 220.65625 " clip-rule="nonzero"/></clipPath><clipPath id="55fd6b0dd3"><rect x="0" width="346" y="0" height="114"/></clipPath></defs><rect x="-37.5" width="450" fill="#ffffff" y="-37.499999" height="449.999989" fill-opacity="1"/><rect x="-37.5" width="450" fill="#ffd78a" y="-37.499999" height="449.999989" fill-opacity="1"/><g clip-path="url(#3df3d0d544)"><g clip-path="url(#ba895addad)"><g transform="matrix(1, 0, 0, 1, 0, 152)"><g clip-path="url(#40728ddd0b)"><g clip-path="url(#d7566204f4)"><g clip-path="url(#e42db9e49b)"><path fill="#272727" d="M -25.199219 199.023438 L 173.527344 0.296875 L 315.234375 142.003906 L 116.511719 340.730469 Z M -25.199219 199.023438 " fill-opacity="1" fill-rule="nonzero"/></g></g></g></g></g></g><g clip-path="url(#ecac4068a4)"><g clip-path="url(#1fa05a6884)"><g transform="matrix(1, 0, 0, 1, 114, 35)"><g clip-path="url(#03961e1deb)"><g clip-path="url(#0bef864f81)"><g clip-path="url(#9017dcf0ab)"><path fill="#272727" d="M 0.414062 268.320312 L 267.578125 1.15625 L 442.050781 175.632812 L 174.890625 442.796875 Z M 0.414062 268.320312 " fill-opacity="1" fill-rule="nonzero"/></g></g></g></g></g></g><g clip-path="url(#606aa96c17)"><g clip-path="url(#f07f2eeb62)"><g transform="matrix(1, 0, 0, 1, 0, 181)"><g clip-path="url(#a57c439689)"><g clip-path="url(#69aa1cc61e)"><g clip-path="url(#ab578fba33)"><path fill="#f49f00" d="M -22.019531 199.660156 L 176.707031 0.933594 L 318.414062 142.644531 L 119.6875 341.367188 Z M -22.019531 199.660156 " fill-opacity="1" fill-rule="nonzero"/></g></g></g></g></g></g><g clip-path="url(#d94cef7a91)"><g clip-path="url(#63fcad1a04)"><g transform="matrix(1, 0, 0, 1, 157, 68)"><g clip-path="url(#1bd9b003f7)"><g clip-path="url(#24c4fd0887)"><g clip-path="url(#111ce68d35)"><path fill="#ffe6b5" d="M 0.703125 221.117188 L 220.992188 0.828125 L 384.453125 164.289062 L 164.164062 384.578125 Z M 0.703125 221.117188 " fill-opacity="1" fill-rule="nonzero"/></g></g></g></g></g></g><g clip-path="url(#b2b0fa452d)"><g clip-path="url(#d84afaf541)"><g transform="matrix(1, 0, 0, 1, 0, 0)"><g clip-path="url(#fbde931cfa)"><g clip-path="url(#d1a7bf6426)"><g clip-path="url(#cb81ce1b72)"><path fill="#272727" d="M -192.515625 183.507812 L 6.476562 -15.484375 L 175.71875 153.757812 L -23.273438 352.75 Z M -192.515625 183.507812 " fill-opacity="1" fill-rule="nonzero"/></g></g></g></g></g></g><g clip-path="url(#5d119e7f22)"><g clip-path="url(#6986eed4be)"><g transform="matrix(1, 0, 0, 1, 0, 0)"><g clip-path="url(#6d2aaf590a)"><g clip-path="url(#44f90da466)"><g clip-path="url(#84fad30f25)"><path fill="#ffbf48" d="M -206.164062 196.515625 L -7.507812 -2.136719 L 162.007812 167.378906 L -36.644531 366.035156 Z M -206.164062 196.515625 " fill-opacity="1" fill-rule="nonzero"/></g></g></g></g></g></g><g clip-path="url(#3c5b6c38ce)"><g clip-path="url(#57c7c9db6b)"><g transform="matrix(1, 0, 0, 1, 8, 210)"><g clip-path="url(#f58e03894a)"><g clip-path="url(#0f074e0c32)"><g clip-path="url(#cf839092c0)"><path fill="#272727" d="M 0.15625 199.660156 L 199.152344 0.667969 L 368.394531 169.910156 L 169.402344 368.902344 Z M 0.15625 199.660156 " fill-opacity="1" fill-rule="nonzero"/></g></g></g></g></g></g><g clip-path="url(#9be8a2f4a0)"><g clip-path="url(#6dd287682f)"><g transform="matrix(1, 0, 0, 1, 7, 219)"><g clip-path="url(#6b6ba62dca)"><g clip-path="url(#15d103d4dc)"><g clip-path="url(#75a484a0ef)"><path fill="#ffe4b0" d="M 0.40625 220.332031 L 220.695312 0.0429688 L 384.15625 163.503906 L 163.867188 383.792969 Z M 0.40625 220.332031 " fill-opacity="1" fill-rule="nonzero"/></g></g></g></g></g></g><g clip-path="url(#c29b521de2)"><g clip-path="url(#a50fc6cbd2)"><g transform="matrix(1, 0, 0, 1, 0, 236)"><g clip-path="url(#ac3726d188)"><g clip-path="url(#356652aec7)"><g clip-path="url(#044a38db26)"><path fill="#f49f00" d="M -63.191406 220.792969 L 157.097656 0.503906 L 320.558594 163.964844 L 100.269531 384.253906 Z M -63.191406 220.792969 " fill-opacity="1" fill-rule="nonzero"/></g></g></g></g></g></g><g clip-path="url(#716ffd3a04)"><g clip-path="url(#9a4dd2877f)"><g transform="matrix(1, 0, 0, 1, 0, 247)"><g clip-path="url(#a6b0bda118)"><g clip-path="url(#f910a34cd4)"><g clip-path="url(#703a799ff1)"><path fill="#272727" d="M 0 199.171875 L 198.726562 0.445312 L 340.4375 142.15625 L 141.710938 340.882812 Z M 0 199.171875 " fill-opacity="1" fill-rule="nonzero"/></g></g></g></g></g></g><g clip-path="url(#132a6b2faa)"><g clip-path="url(#4f31e5ee6c)"><g transform="matrix(1, 0, 0, 1, 0, 261)"><g clip-path="url(#55fd6b0dd3)"><g clip-path="url(#25560ea7f9)"><g clip-path="url(#9d4a0e2267)"><path fill="#f49f00" d="M -38 220.65625 L 182.289062 0.367188 L 345.75 163.828125 L 125.460938 384.117188 Z M -38 220.65625 " fill-opacity="1" fill-rule="nonzero"/></g></g></g></g></g></g></svg>