<svg xmlns="http://www.w3.org/2000/svg" xmlns:xlink="http://www.w3.org/1999/xlink" width="500" zoomAndPan="magnify" viewBox="0 0 375 374.999991" height="500" preserveAspectRatio="xMidYMid meet" version="1.0"><defs><g/><clipPath id="678a3526a4"><rect x="0" width="243" y="0" height="369"/></clipPath><clipPath id="ac7918e496"><path d="M 277.179688 5.628906 L 299.09375 5.628906 L 299.09375 27.542969 L 277.179688 27.542969 Z M 277.179688 5.628906 " clip-rule="nonzero"/></clipPath><clipPath id="b432638a3e"><path d="M 288.136719 5.628906 C 282.085938 5.628906 277.179688 10.535156 277.179688 16.585938 C 277.179688 22.636719 282.085938 27.542969 288.136719 27.542969 C 294.1875 27.542969 299.09375 22.636719 299.09375 16.585938 C 299.09375 10.535156 294.1875 5.628906 288.136719 5.628906 Z M 288.136719 5.628906 " clip-rule="nonzero"/></clipPath><clipPath id="dd2cdb3fef"><path d="M 0.179688 0.628906 L 22.09375 0.628906 L 22.09375 22.542969 L 0.179688 22.542969 Z M 0.179688 0.628906 " clip-rule="nonzero"/></clipPath><clipPath id="95546a1bc5"><path d="M 11.136719 0.628906 C 5.085938 0.628906 0.179688 5.535156 0.179688 11.585938 C 0.179688 17.636719 5.085938 22.542969 11.136719 22.542969 C 17.1875 22.542969 22.09375 17.636719 22.09375 11.585938 C 22.09375 5.535156 17.1875 0.628906 11.136719 0.628906 Z M 11.136719 0.628906 " clip-rule="nonzero"/></clipPath><clipPath id="29b2a7e7a3"><rect x="0" width="23" y="0" height="23"/></clipPath><clipPath id="bf725db501"><path d="M 68.535156 343.019531 L 90.449219 343.019531 L 90.449219 364.933594 L 68.535156 364.933594 Z M 68.535156 343.019531 " clip-rule="nonzero"/></clipPath><clipPath id="51b41555c4"><path d="M 79.492188 343.019531 C 73.441406 343.019531 68.535156 347.925781 68.535156 353.976562 C 68.535156 360.027344 73.441406 364.933594 79.492188 364.933594 C 85.542969 364.933594 90.449219 360.027344 90.449219 353.976562 C 90.449219 347.925781 85.542969 343.019531 79.492188 343.019531 Z M 79.492188 343.019531 " clip-rule="nonzero"/></clipPath><clipPath id="4e47f84567"><path d="M 0.535156 0.0195312 L 22.449219 0.0195312 L 22.449219 21.933594 L 0.535156 21.933594 Z M 0.535156 0.0195312 " clip-rule="nonzero"/></clipPath><clipPath id="2facf656d4"><path d="M 11.492188 0.0195312 C 5.441406 0.0195312 0.535156 4.925781 0.535156 10.976562 C 0.535156 17.027344 5.441406 21.933594 11.492188 21.933594 C 17.542969 21.933594 22.449219 17.027344 22.449219 10.976562 C 22.449219 4.925781 17.542969 0.0195312 11.492188 0.0195312 Z M 11.492188 0.0195312 " clip-rule="nonzero"/></clipPath><clipPath id="c65ac7efdd"><rect x="0" width="23" y="0" height="22"/></clipPath></defs><g transform="matrix(1, 0, 0, 1, 62, 6)"><g clip-path="url(#678a3526a4)"><g fill="#ffe6b5" fill-opacity="1"><g transform="translate(2.051333, 329.064872)"><g><path d="M 7.875 -209.640625 C 7.875 -225.691406 12.175781 -240.5 20.78125 -254.0625 C 29.394531 -267.632812 41.066406 -278.578125 55.796875 -286.890625 C 70.535156 -295.210938 87.097656 -299.375 105.484375 -299.375 C 116.273438 -299.375 125.898438 -297.691406 134.359375 -294.328125 C 142.828125 -290.972656 150.488281 -287.035156 157.34375 -282.515625 C 164.195312 -277.992188 170.539062 -274.054688 176.375 -270.703125 C 182.21875 -267.347656 187.765625 -265.671875 193.015625 -265.671875 C 204.097656 -265.671875 211.242188 -268.515625 214.453125 -274.203125 C 217.671875 -279.890625 219.28125 -287.546875 219.28125 -297.171875 L 229.34375 -297.171875 C 230.800781 -285.210938 230.945312 -272.882812 229.78125 -260.1875 C 228.613281 -247.5 225.398438 -235.753906 220.140625 -224.953125 C 214.890625 -214.160156 207.160156 -205.410156 196.953125 -198.703125 C 186.742188 -191.992188 173.46875 -188.640625 157.125 -188.640625 C 146.332031 -188.640625 136.773438 -191.046875 128.453125 -195.859375 C 120.140625 -200.671875 112.625 -206.648438 105.90625 -213.796875 C 99.195312 -220.953125 93.144531 -228.25 87.75 -235.6875 C 82.351562 -243.125 77.101562 -249.539062 72 -254.9375 C 66.894531 -260.34375 61.640625 -263.628906 56.234375 -264.796875 C 50.835938 -265.960938 44.929688 -263.921875 38.515625 -258.671875 C 31.515625 -252.828125 30.421875 -245.601562 35.234375 -237 C 40.046875 -228.394531 50.179688 -219.640625 65.640625 -210.734375 C 81.109375 -201.835938 101.097656 -193.890625 125.609375 -186.890625 C 134.953125 -184.265625 145.96875 -180.539062 158.65625 -175.71875 C 171.34375 -170.90625 183.8125 -164.632812 196.0625 -156.90625 C 208.320312 -149.175781 218.535156 -139.765625 226.703125 -128.671875 C 234.878906 -117.585938 238.96875 -104.457031 238.96875 -89.28125 C 238.96875 -72.945312 234.585938 -57.773438 225.828125 -43.765625 C 217.078125 -29.765625 205.257812 -18.457031 190.375 -9.84375 C 175.5 -1.238281 158.582031 3.0625 139.625 3.0625 C 128.820312 3.0625 118.894531 1.3125 109.84375 -2.1875 C 100.800781 -5.6875 92.488281 -9.625 84.90625 -14 C 77.320312 -18.382812 70.316406 -22.328125 63.890625 -25.828125 C 57.472656 -29.328125 51.492188 -31.078125 45.953125 -31.078125 C 35.160156 -31.078125 28.082031 -28.226562 24.71875 -22.53125 C 21.363281 -16.84375 19.6875 -9.1875 19.6875 0.4375 L 10.0625 0.4375 C 8.3125 -11.519531 8.09375 -23.84375 9.40625 -36.53125 C 10.71875 -49.226562 14 -60.972656 19.25 -71.765625 C 24.507812 -82.566406 32.242188 -91.320312 42.453125 -98.03125 C 52.660156 -104.75 65.789062 -108.109375 81.84375 -108.109375 C 92.632812 -108.109375 102.40625 -105.695312 111.15625 -100.875 C 119.914062 -96.0625 127.867188 -90.007812 135.015625 -82.71875 C 142.171875 -75.425781 148.8125 -68.054688 154.9375 -60.609375 C 161.0625 -53.171875 166.894531 -46.753906 172.4375 -41.359375 C 177.988281 -35.960938 183.535156 -32.679688 189.078125 -31.515625 C 194.617188 -30.347656 200.453125 -32.390625 206.578125 -37.640625 C 213.578125 -43.765625 213.941406 -51.347656 207.671875 -60.390625 C 201.398438 -69.441406 190.019531 -78.632812 173.53125 -87.96875 C 157.050781 -97.3125 136.410156 -105.628906 111.609375 -112.921875 C 91.765625 -118.753906 73.960938 -125.460938 58.203125 -133.046875 C 42.453125 -140.640625 30.125 -150.488281 21.21875 -162.59375 C 12.320312 -174.707031 7.875 -190.390625 7.875 -209.640625 Z M 7.875 -209.640625 "/></g></g></g></g></g><g clip-path="url(#ac7918e496)"><g clip-path="url(#b432638a3e)"><g transform="matrix(1, 0, 0, 1, 277, 5)"><g clip-path="url(#29b2a7e7a3)"><g clip-path="url(#dd2cdb3fef)"><g clip-path="url(#95546a1bc5)"><path fill="#ffe6b5" d="M 0.179688 0.628906 L 22.09375 0.628906 L 22.09375 22.542969 L 0.179688 22.542969 Z M 0.179688 0.628906 " fill-opacity="1" fill-rule="nonzero"/></g></g></g></g></g></g><g clip-path="url(#bf725db501)"><g clip-path="url(#51b41555c4)"><g transform="matrix(1, 0, 0, 1, 68, 343)"><g clip-path="url(#c65ac7efdd)"><g clip-path="url(#4e47f84567)"><g clip-path="url(#2facf656d4)"><path fill="#ffe6b5" d="M 0.535156 0.0195312 L 22.449219 0.0195312 L 22.449219 21.933594 L 0.535156 21.933594 Z M 0.535156 0.0195312 " fill-opacity="1" fill-rule="nonzero"/></g></g></g></g></g></g></svg>