<svg width="352" height="46" viewBox="0 0 352 46" fill="none" xmlns="http://www.w3.org/2000/svg">
<path d="M63.3925 37.2051C63.0838 37.2051 62.9295 37.0389 62.9295 36.7065V18.972H57.0892C56.7569 18.972 56.5907 18.8059 56.5907 18.4735V14.3782C56.5907 14.0458 56.7569 13.8796 57.0892 13.8796H74.61C74.9187 13.8796 75.073 14.0458 75.073 14.3782V18.4735C75.073 18.8059 74.9187 18.972 74.61 18.972H68.7698V36.7065C68.7698 37.0389 68.6036 37.2051 68.2712 37.2051H63.3925ZM78.3364 37.2051C78.0041 37.2051 77.8379 37.0389 77.8379 36.7065V14.3782C77.8379 14.0458 78.0041 13.8796 78.3364 13.8796H83.2508C83.5594 13.8796 83.7138 14.0458 83.7138 14.3782V22.9605H91.8688V14.3782C91.8688 14.0458 92.0349 13.8796 92.3673 13.8796H97.2461C97.5785 13.8796 97.7446 14.0458 97.7446 14.3782V36.7065C97.7446 37.0389 97.5785 37.2051 97.2461 37.2051H92.3673C92.0349 37.2051 91.8688 37.0389 91.8688 36.7065V28.0173H83.7138V36.7065C83.7138 37.0389 83.5594 37.2051 83.2508 37.2051H78.3364ZM102.437 37.2051C102.104 37.2051 101.938 37.0389 101.938 36.7065V14.3782C101.938 14.0458 102.104 13.8796 102.437 13.8796H117.251C117.56 13.8796 117.714 14.0458 117.714 14.3782V18.4735C117.714 18.8059 117.56 18.972 117.251 18.972H107.814V23.0674H116.396C116.705 23.0674 116.859 23.2335 116.859 23.5659V27.3763C116.859 27.7087 116.705 27.8749 116.396 27.8749H107.814V32.1127H117.251C117.56 32.1127 117.714 32.2788 117.714 32.6112V36.7065C117.714 37.0389 117.56 37.2051 117.251 37.2051H102.437ZM126.86 37.2051C126.551 37.2051 126.397 37.0389 126.397 36.7065V18.972H120.557C120.224 18.972 120.058 18.8059 120.058 18.4735V14.3782C120.058 14.0458 120.224 13.8796 120.557 13.8796H138.078C138.386 13.8796 138.541 14.0458 138.541 14.3782V18.4735C138.541 18.8059 138.386 18.972 138.078 18.972H132.237V36.7065C132.237 37.0389 132.071 37.2051 131.739 37.2051H126.86ZM137.368 37.2051C136.988 37.2051 136.857 37.0152 136.976 36.6353L144.383 14.2713C144.478 14.0102 144.668 13.8796 144.953 13.8796H151.292C151.577 13.8796 151.767 14.0102 151.862 14.2713L159.304 36.6353C159.352 36.8015 159.34 36.9439 159.269 37.0626C159.221 37.1576 159.103 37.2051 158.913 37.2051H153.571C153.262 37.2051 153.072 37.0745 153.001 36.8134L149.405 23.922C149.167 23.0674 148.942 22.2127 148.728 21.358C148.514 20.5033 148.312 19.6605 148.123 18.8296H148.051C147.861 19.6843 147.66 20.539 147.446 21.3936C147.232 22.2483 147.007 23.103 146.769 23.9576L143.244 36.7777C143.173 37.0626 142.983 37.2051 142.674 37.2051H137.368ZM143.422 33.0385L144.348 28.4447H151.719L152.681 33.0385H143.422ZM255.567 37.2051C255.446 37.2051 255.386 37.1448 255.386 37.0243V20.4738C255.386 20.3534 255.446 20.2931 255.567 20.2931H264.655C264.776 20.2931 264.836 20.3534 264.836 20.4738V21.3775C264.836 21.498 264.776 21.5583 264.655 21.5583H256.755V28.194H263.726C263.829 28.194 263.881 28.2542 263.881 28.3747V29.2268C263.881 29.3473 263.829 29.4075 263.726 29.4075H256.755V37.0243C256.755 37.1448 256.703 37.2051 256.6 37.2051H255.567ZM268.729 37.2051C268.608 37.2051 268.548 37.1448 268.548 37.0243V20.4738C268.548 20.3534 268.608 20.2931 268.729 20.2931H269.762C269.865 20.2931 269.917 20.3534 269.917 20.4738V37.0243C269.917 37.1448 269.865 37.2051 269.762 37.2051H268.729ZM274.982 37.2051C274.862 37.2051 274.801 37.1448 274.801 37.0243V20.4738C274.801 20.3534 274.862 20.2931 274.982 20.2931H276.79C276.893 20.2931 276.962 20.3361 276.996 20.4222L282.651 30.3112C283.029 30.9825 283.391 31.6194 283.735 32.2219C284.097 32.8243 284.441 33.4096 284.768 33.9776C285.095 34.5456 285.413 35.1051 285.723 35.6559H285.749C285.749 35.2256 285.749 34.7866 285.749 34.3391C285.749 33.8743 285.749 33.4182 285.749 32.9706C285.749 32.5059 285.749 32.0497 285.749 31.6022C285.749 31.1374 285.749 30.6813 285.749 30.2337V20.4738C285.749 20.3534 285.801 20.2931 285.904 20.2931H286.911C287.031 20.2931 287.092 20.3534 287.092 20.4738V37.0243C287.092 37.1448 287.031 37.2051 286.911 37.2051H285.129C285.043 37.2051 284.983 37.162 284.949 37.076L279.449 27.4968C279.088 26.8427 278.717 26.2058 278.339 25.5862C277.977 24.9493 277.616 24.321 277.254 23.7013C276.893 23.0816 276.54 22.462 276.196 21.8423H276.144C276.144 22.3415 276.144 22.8321 276.144 23.314C276.144 23.7788 276.144 24.2521 276.144 24.7341C276.161 25.1989 276.17 25.6722 276.17 26.1542C276.17 26.619 276.17 27.1095 276.17 27.6259V37.0243C276.17 37.1448 276.11 37.2051 275.989 37.2051H274.982ZM289.83 37.2051C289.692 37.2051 289.641 37.1448 289.675 37.0243L295.691 20.4222C295.726 20.3361 295.795 20.2931 295.898 20.2931H297.344C297.447 20.2931 297.516 20.3361 297.55 20.4222L303.592 37.0243C303.609 37.076 303.601 37.119 303.566 37.1534C303.549 37.1879 303.506 37.2051 303.437 37.2051H302.327C302.224 37.2051 302.155 37.162 302.12 37.076L297.55 24.2952C297.395 23.8304 297.24 23.3743 297.086 22.9267C296.931 22.462 296.767 21.9972 296.595 21.5325H296.569C296.414 21.98 296.259 22.4361 296.104 22.9009C295.949 23.3657 295.786 23.8304 295.614 24.2952L291.095 37.076C291.061 37.162 290.983 37.2051 290.863 37.2051H289.83ZM292.309 32.7899L292.67 31.5764H300.494L300.855 32.7899H292.309ZM306.349 37.2051C306.229 37.2051 306.168 37.1448 306.168 37.0243V20.4738C306.168 20.3534 306.229 20.2931 306.349 20.2931H308.157C308.26 20.2931 308.329 20.3361 308.363 20.4222L314.018 30.3112C314.396 30.9825 314.758 31.6194 315.102 32.2219C315.464 32.8243 315.808 33.4096 316.135 33.9776C316.462 34.5456 316.78 35.1051 317.09 35.6559H317.116C317.116 35.2256 317.116 34.7866 317.116 34.3391C317.116 33.8743 317.116 33.4182 317.116 32.9706C317.116 32.5059 317.116 32.0497 317.116 31.6022C317.116 31.1374 317.116 30.6813 317.116 30.2337V20.4738C317.116 20.3534 317.168 20.2931 317.271 20.2931H318.278C318.398 20.2931 318.459 20.3534 318.459 20.4738V37.0243C318.459 37.1448 318.398 37.2051 318.278 37.2051H316.496C316.41 37.2051 316.35 37.162 316.316 37.076L310.816 27.4968C310.455 26.8427 310.084 26.2058 309.706 25.5862C309.344 24.9493 308.983 24.321 308.621 23.7013C308.26 23.0816 307.907 22.462 307.563 21.8423H307.511C307.511 22.3415 307.511 22.8321 307.511 23.314C307.511 23.7788 307.511 24.2521 307.511 24.7341C307.528 25.1989 307.537 25.6722 307.537 26.1542C307.537 26.619 307.537 27.1095 307.537 27.6259V37.0243C307.537 37.1448 307.477 37.2051 307.356 37.2051H306.349ZM329.15 37.5149C327.136 37.5149 325.595 37.0071 324.528 35.9915C323.478 34.976 322.953 33.5387 322.953 31.6796V25.8185C322.953 23.9595 323.487 22.5222 324.554 21.5066C325.621 20.4911 327.162 19.9833 329.175 19.9833C330.484 19.9833 331.62 20.207 332.584 20.6546C333.548 21.0849 334.271 21.7132 334.753 22.5394C335.235 23.3657 335.415 24.364 335.295 25.5345C335.278 25.5862 335.252 25.6378 335.217 25.6894C335.2 25.7411 335.157 25.7669 335.088 25.7669H334.081C333.944 25.7669 333.892 25.7067 333.926 25.5862C334.012 24.1747 333.625 23.0989 332.764 22.3587C331.921 21.6013 330.733 21.2226 329.201 21.2226C327.635 21.2226 326.43 21.6185 325.587 22.4103C324.743 23.2021 324.321 24.3382 324.321 25.8185V31.6796C324.321 33.16 324.743 34.296 325.587 35.0879C326.43 35.8797 327.635 36.2756 329.201 36.2756C330.768 36.2756 331.964 35.9055 332.79 35.1653C333.616 34.4251 333.995 33.3407 333.926 31.912C333.892 31.7915 333.944 31.7313 334.081 31.7313H335.088C335.192 31.7313 335.26 31.8087 335.295 31.9637C335.364 33.1169 335.157 34.1067 334.675 34.9329C334.193 35.7592 333.479 36.3961 332.532 36.8436C331.603 37.2911 330.475 37.5149 329.15 37.5149ZM339.834 37.2051C339.714 37.2051 339.654 37.1448 339.654 37.0243V20.4738C339.654 20.3534 339.714 20.2931 339.834 20.2931H348.923C349.043 20.2931 349.104 20.3534 349.104 20.4738V21.3775C349.104 21.498 349.043 21.5583 348.923 21.5583H341.022V27.9616H348.329C348.449 27.9616 348.51 28.0218 348.51 28.1423V28.9944C348.51 29.1149 348.449 29.1751 348.329 29.1751H341.022V35.9399H348.923C349.043 35.9399 349.104 36.0002 349.104 36.1206V37.0243C349.104 37.1448 349.043 37.2051 348.923 37.2051H339.834Z" fill="black"/>
<path d="M162.798 37.2051C162.632 37.2051 162.548 37.122 162.548 36.9558V14.1289C162.548 13.9627 162.632 13.8796 162.798 13.8796H165.291C165.433 13.8796 165.528 13.939 165.575 14.0577L173.374 27.6968C173.897 28.6227 174.395 29.5011 174.87 30.3321C175.369 31.163 175.843 31.9702 176.294 32.7537C176.746 33.5371 177.185 34.3087 177.612 35.0684H177.648C177.648 34.4749 177.648 33.8695 177.648 33.2522C177.648 32.6112 177.648 31.9821 177.648 31.3648C177.648 30.7238 177.648 30.0947 177.648 29.4774C177.648 28.8364 177.648 28.2073 177.648 27.59V14.1289C177.648 13.9627 177.719 13.8796 177.861 13.8796H179.25C179.416 13.8796 179.499 13.9627 179.499 14.1289V36.9558C179.499 37.122 179.416 37.2051 179.25 37.2051H176.793C176.674 37.2051 176.591 37.1457 176.544 37.027L168.959 23.8152C168.46 22.913 167.95 22.0346 167.427 21.18C166.929 20.3015 166.43 19.435 165.932 18.5803C165.433 17.7257 164.946 16.871 164.471 16.0163H164.4C164.4 16.7048 164.4 17.3814 164.4 18.0462C164.4 18.6872 164.4 19.34 164.4 20.0048C164.424 20.6458 164.436 21.2987 164.436 21.9634C164.436 22.6044 164.436 23.281 164.436 23.9933V36.9558C164.436 37.122 164.353 37.2051 164.187 37.2051H162.798ZM194.352 37.6324C191.645 37.6324 189.58 36.9202 188.155 35.4957C186.731 34.0475 186.019 31.9227 186.019 29.1213V14.1289C186.019 13.9627 186.102 13.8796 186.268 13.8796H187.692C187.764 13.8796 187.811 13.9034 187.835 13.9508C187.882 13.9746 187.906 14.0339 187.906 14.1289V29.1569C187.906 31.3886 188.44 33.0742 189.508 34.2137C190.601 35.3533 192.215 35.9231 194.352 35.9231C196.488 35.9231 198.091 35.3533 199.159 34.2137C200.251 33.0742 200.797 31.3886 200.797 29.1569V14.1289C200.797 13.9627 200.869 13.8796 201.011 13.8796H202.435C202.602 13.8796 202.685 13.9627 202.685 14.1289V29.1569C202.685 31.8871 201.961 33.9882 200.512 35.4601C199.088 36.9083 197.034 37.6324 194.352 37.6324ZM214.774 37.2051C214.632 37.2051 214.561 37.122 214.561 36.9558V15.6246H207.545C207.379 15.6246 207.296 15.5415 207.296 15.3753V14.1289C207.296 13.9627 207.379 13.8796 207.545 13.8796H223.428C223.594 13.8796 223.677 13.9627 223.677 14.1289V15.3753C223.677 15.5415 223.594 15.6246 223.428 15.6246H216.448V36.9558C216.448 37.122 216.365 37.2051 216.199 37.2051H214.774ZM234.479 37.6324C232.627 37.6324 231.119 37.3831 229.956 36.8846C228.816 36.3623 227.974 35.6144 227.428 34.6411C226.905 33.6677 226.668 32.4925 226.715 31.1155C226.739 30.8544 226.834 30.7238 227 30.7238H228.354C228.543 30.7238 228.638 30.8425 228.638 31.0799C228.638 32.7893 229.113 34.0357 230.063 34.8191C231.013 35.5788 232.532 35.9587 234.621 35.9587C236.71 35.9587 238.23 35.6263 239.179 34.9616C240.153 34.2731 240.639 33.1929 240.639 31.7209C240.639 30.8425 240.497 30.1303 240.212 29.5842C239.927 29.0145 239.476 28.5278 238.859 28.1242C238.242 27.7206 237.434 27.317 236.437 26.9134L231.772 24.9192C230.656 24.4443 229.754 23.9458 229.066 23.4235C228.377 22.8774 227.879 22.2602 227.57 21.5717C227.285 20.8595 227.143 20.0048 227.143 19.0077C227.167 17.1796 227.819 15.8026 229.101 14.8767C230.383 13.9508 232.188 13.4879 234.514 13.4879C236.2 13.4879 237.613 13.7372 238.752 14.2357C239.892 14.7106 240.746 15.4109 241.316 16.3368C241.91 17.2627 242.171 18.4141 242.1 19.7911C242.076 20.076 241.993 20.2184 241.85 20.2184H240.461C240.39 20.2184 240.331 20.1947 240.283 20.1472C240.236 20.076 240.212 19.9573 240.212 19.7911C240.283 18.2954 239.832 17.1559 238.859 16.3724C237.886 15.5652 236.414 15.1616 234.443 15.1616C232.734 15.1616 231.404 15.4703 230.455 16.0875C229.529 16.6811 229.054 17.6188 229.03 18.9008C229.03 19.6843 229.149 20.3372 229.386 20.8595C229.647 21.358 230.051 21.8091 230.597 22.2127C231.167 22.5925 231.927 22.9961 232.876 23.4235L237.541 25.4177C238.752 25.94 239.725 26.4742 240.461 27.0202C241.197 27.5425 241.72 28.1717 242.028 28.9076C242.361 29.6436 242.527 30.5695 242.527 31.6853C242.527 33.6321 241.886 35.1159 240.604 36.1367C239.346 37.1339 237.304 37.6324 234.479 37.6324Z" fill="#1FFFAB"/>
<path d="M37.2972 31.6614C38.686 30.2559 39.9769 28.757 41.1608 27.1751C44.2924 22.9578 45.4824 19.114 45.7121 15.7678C45.9093 12.8878 42.9284 2.77726 42.9284 2.77726C42.9284 2.77726 33.6993 -0.122408 29.9437 0.00401713C26.5905 0.120004 22.7525 1.41905 18.5352 4.55417C16.9574 5.73485 15.4615 7.02139 14.0581 8.40492C12.4413 7.709 10.4428 8.05696 9.07072 9.43489L7.45619 11.0494C7.17783 11.3278 6.90757 11.6294 6.65472 11.9332C5.99929 12.727 5.4474 13.6008 5.01235 14.5337C4.88476 14.8051 4.78038 15.0591 4.68179 15.3096C4.22411 16.4962 3.96585 17.7503 3.91744 19.0212C3.90228 19.4389 3.91079 19.8571 3.94295 20.2738C4.01439 21.2211 4.21336 22.1543 4.53448 23.0482C4.52752 21.8443 4.85692 20.8375 5.56212 20.1323C8.12659 17.5679 14.6845 19.9676 20.2101 25.4932C25.7357 31.0189 28.1343 37.5767 25.5698 40.1412C24.8623 40.8487 23.8497 41.1781 22.64 41.1677C26.5696 42.5816 31.3135 41.5818 34.6493 38.246L36.2638 36.6315C37.6209 35.2558 37.9758 33.2759 37.2972 31.6614Z" fill="black"/>
<path d="M17.1967 36.2198C15.0475 38.3679 0.164062 45.4697 0.164062 45.4697C0.164062 45.4697 7.26591 30.5863 9.41515 28.4383C9.92601 27.9272 10.5326 27.5218 11.2002 27.2452C11.8678 26.9685 12.5833 26.8262 13.3059 26.8262C14.0285 26.8262 14.7441 26.9685 15.4117 27.2452C16.0793 27.5218 16.6858 27.9272 17.1967 28.4383C18.2283 29.4703 18.8078 30.8698 18.8078 32.329C18.8078 33.7883 18.2283 35.1878 17.1967 36.2198Z" fill="#1FFFAB"/>
</svg>
